<?xml version="1.0" encoding="UTF-8"?>
<svg width="259px" height="63px" viewBox="0 0 259 63" version="1.1" xmlns="http://www.w3.org/2000/svg" xmlns:xlink="http://www.w3.org/1999/xlink">
    <!-- Generator: Sketch 54.1 (76490) - https://sketchapp.com -->
    <title>Group 8</title>
    <desc>Created with Sketch.</desc>
    <defs>
        <polygon id="path-1" points="0.03 0.483 17.7193203 0.483 17.7193203 20.3295 0.03 20.3295"></polygon>
        <polygon id="path-3" points="0.1825 0.414208113 22.678892 0.414208113 22.678892 20.47 0.1825 20.47"></polygon>
    </defs>
    <g id="Secondary-Pages" stroke="none" stroke-width="1" fill="none" fill-rule="evenodd">
        <g id="Experience" transform="translate(-60.000000, -65.000000)">
            <g id="Group-7">
                <g id="Group-8" transform="translate(60.000000, 65.000000)">
                    <g id="Group-4-Copy" transform="translate(81.000000, 20.000000)">
                        <g id="Group-3">
                            <mask id="mask-2" fill="white">
                                <use xlink:href="#path-1"></use>
                            </mask>
                            <g id="Clip-2"></g>
                            <path d="M6.5915,20.3295 L11.128,20.3295 C11.326,20.3295 11.4965,20.2775 11.6335,20.1785 C11.7655,20.079 11.865,19.9325 11.9215,19.734 L17.677,1.2775 C17.748,1.0315 17.729,0.8425 17.625,0.701 C17.521,0.5585 17.3365,0.488 17.0815,0.483 L13.5945,0.483 C13.396,0.483 13.226,0.5255 13.0935,0.62 C12.9565,0.715 12.857,0.8665 12.8005,1.0785 L8.8595,15.0845 L4.9185,1.0785 C4.862,0.8665 4.763,0.715 4.6305,0.62 C4.4935,0.5255 4.3235,0.483 4.125,0.483 L0.638,0.483 C0.3825,0.488 0.198,0.5585 0.0945,0.701 C-0.0095,0.8425 -0.0285,1.0315 0.042,1.2775 L5.7975,19.734 C5.8545,19.9325 5.9535,20.079 6.0905,20.1785 C6.2225,20.2775 6.393,20.3295 6.5915,20.3295" id="Fill-1" fill="#1A1919" mask="url(#mask-2)"></path>
                        </g>
                        <path d="M26.283,16.587 C25.6635,16.582 25.106,16.4455 24.619,16.1665 C24.128,15.892 23.7405,15.505 23.457,15.004 C23.1735,14.503 23.027,13.917 23.0225,13.242 C23.027,12.566 23.1735,11.98 23.457,11.479 C23.7405,10.978 24.128,10.591 24.619,10.3165 C25.106,10.038 25.6635,9.901 26.283,9.896 C26.902,9.901 27.459,10.038 27.9465,10.3165 C28.4375,10.591 28.825,10.978 29.1085,11.479 C29.3915,11.98 29.538,12.566 29.543,13.242 C29.538,13.917 29.3915,14.503 29.1085,15.004 C28.825,15.505 28.4375,15.892 27.9465,16.1665 C27.459,16.4455 26.902,16.582 26.283,16.587 Z M26.283,20.726 C27.332,20.722 28.3095,20.528 29.2175,20.15 C30.1195,19.772 30.9185,19.2475 31.6035,18.567 C32.2885,17.891 32.823,17.097 33.21,16.195 C33.593,15.2875 33.791,14.305 33.796,13.242 C33.791,12.1785 33.593,11.1955 33.21,10.288 C32.823,9.386 32.2885,8.592 31.6035,7.916 C30.9185,7.2355 30.1195,6.711 29.2175,6.333 C28.3095,5.955 27.332,5.762 26.283,5.757 C25.2335,5.762 24.256,5.955 23.3485,6.333 C22.446,6.711 21.6475,7.2355 20.962,7.916 C20.277,8.592 19.743,9.386 19.3555,10.288 C18.9725,11.1955 18.7745,12.1785 18.7695,13.242 C18.7745,14.305 18.9725,15.2875 19.3555,16.195 C19.743,17.097 20.277,17.891 20.962,18.567 C21.6475,19.2475 22.446,19.772 23.3485,20.15 C24.256,20.528 25.2335,20.722 26.283,20.726 L26.283,20.726 Z" id="Fill-4" fill="#1A1919"></path>
                        <path d="M36.94,20.3295 L39.7755,20.3295 C40.002,20.3295 40.1775,20.268 40.3,20.145 C40.423,20.0225 40.4845,19.8475 40.4845,19.6205 L40.4845,6.8625 C40.4845,6.6355 40.423,6.461 40.3,6.338 C40.1775,6.215 40.002,6.1535 39.7755,6.1535 L36.94,6.1535 C36.7135,6.1535 36.5385,6.215 36.4155,6.338 C36.293,6.461 36.2315,6.6355 36.2315,6.8625 L36.2315,19.6205 C36.2315,19.8475 36.293,20.0225 36.4155,20.145 C36.5385,20.268 36.7135,20.3295 36.94,20.3295 Z M36.94,4.4525 L39.7755,4.4525 C40.002,4.4525 40.1775,4.391 40.3,4.268 C40.423,4.145 40.4845,3.971 40.4845,3.7435 L40.4845,1.192 C40.4845,0.9655 40.423,0.7905 40.3,0.6675 C40.1775,0.5445 40.002,0.483 39.7755,0.483 L36.94,0.483 C36.7135,0.483 36.5385,0.5445 36.4155,0.6675 C36.293,0.7905 36.2315,0.9655 36.2315,1.192 L36.2315,3.7435 C36.2315,3.971 36.293,4.145 36.4155,4.268 C36.5385,4.391 36.7135,4.4525 36.94,4.4525 L36.94,4.4525 Z" id="Fill-5" fill="#1A1919"></path>
                        <path d="M56.7875,14.943 L53.669,14.943 C53.475,14.943 53.31,14.9855 53.182,15.0705 C53.05,15.1555 52.9275,15.283 52.8185,15.453 C52.5585,15.793 52.223,16.0575 51.807,16.247 C51.3915,16.431 50.9235,16.5255 50.409,16.5305 C49.7895,16.5255 49.232,16.3885 48.745,16.1145 C48.254,15.8405 47.8665,15.453 47.583,14.9615 C47.2995,14.4705 47.153,13.8985 47.148,13.242 C47.153,12.585 47.2995,12.0135 47.583,11.5215 C47.8665,11.03 48.254,10.6425 48.745,10.368 C49.232,10.095 49.7895,9.9575 50.409,9.9525 C50.9235,9.9525 51.3915,10.0525 51.807,10.241 C52.223,10.43 52.5585,10.704 52.8185,11.0585 C52.9315,11.2145 53.055,11.3325 53.192,11.4175 C53.3285,11.498 53.4845,11.5405 53.669,11.5405 L56.7875,11.5405 C57.0335,11.5355 57.213,11.465 57.331,11.3235 C57.4445,11.181 57.4635,10.9925 57.383,10.7465 C57.161,10.005 56.83,9.3335 56.3905,8.724 C55.9515,8.115 55.422,7.5905 54.8125,7.146 C54.1985,6.7015 53.5175,6.362 52.776,6.1205 C52.0295,5.8795 51.2405,5.762 50.409,5.757 C49.326,5.762 48.3295,5.955 47.4175,6.333 C46.5055,6.711 45.7115,7.2355 45.036,7.916 C44.36,8.592 43.836,9.386 43.4625,10.288 C43.089,11.1955 42.9,12.1785 42.8955,13.242 C42.9,14.305 43.089,15.2875 43.4625,16.195 C43.836,17.097 44.36,17.891 45.036,18.567 C45.7115,19.2475 46.5055,19.772 47.4175,20.15 C48.3295,20.528 49.326,20.722 50.409,20.726 C51.2405,20.722 52.0295,20.6035 52.776,20.3625 C53.5175,20.1215 54.1985,19.7815 54.8125,19.3375 C55.422,18.893 55.9515,18.368 56.3905,17.759 C56.83,17.149 57.161,16.478 57.383,15.7365 C57.4635,15.491 57.4445,15.302 57.331,15.16 C57.213,15.018 57.0335,14.9475 56.7875,14.943" id="Fill-6" fill="#1A1919"></path>
                        <path d="M63.3065,11.7105 C63.5285,11.0015 63.9065,10.458 64.4405,10.09 C64.97,9.7165 65.6405,9.5325 66.439,9.5275 C66.86,9.523 67.266,9.594 67.6585,9.7355 C68.051,9.877 68.4005,10.1085 68.698,10.4255 C69.0005,10.7465 69.227,11.177 69.3785,11.7105 L63.3065,11.7105 Z M66.4675,5.757 C65.343,5.762 64.318,5.955 63.391,6.333 C62.4655,6.711 61.662,7.2355 60.991,7.916 C60.315,8.592 59.7955,9.386 59.427,10.288 C59.058,11.1955 58.874,12.1785 58.8695,13.242 C58.874,14.305 59.054,15.2875 59.413,16.195 C59.772,17.097 60.2865,17.891 60.9625,18.567 C61.634,19.2475 62.442,19.772 63.391,20.15 C64.3365,20.528 65.4,20.722 66.581,20.726 C67.55,20.726 68.443,20.5845 69.2605,20.3055 C70.0775,20.0225 70.796,19.6065 71.415,19.049 C72.034,18.496 72.5305,17.806 72.9035,16.984 C73.0125,16.7525 73.0075,16.5635 72.899,16.417 C72.7855,16.2705 72.5965,16.195 72.3365,16.19 L69.615,16.219 C69.435,16.219 69.2795,16.2515 69.142,16.318 C69.01,16.384 68.8725,16.4735 68.736,16.587 C68.476,16.8045 68.1595,16.9745 67.7955,17.102 C67.427,17.2295 67.039,17.291 66.638,17.296 C66.1415,17.296 65.674,17.2205 65.2345,17.0595 C64.8,16.899 64.412,16.6485 64.081,16.304 C63.7505,15.9535 63.5,15.5 63.3205,14.943 L72.79,14.943 C73.003,14.943 73.1775,14.8905 73.3095,14.7865 C73.4425,14.6825 73.5275,14.517 73.556,14.2905 C73.57,14.12 73.584,13.9505 73.5935,13.7755 C73.6075,13.6055 73.6125,13.426 73.6125,13.242 C73.6075,12.164 73.428,11.172 73.078,10.2645 C72.7285,9.3575 72.2325,8.5685 71.595,7.892 C70.9525,7.2215 70.201,6.697 69.331,6.324 C68.462,5.9505 67.5075,5.762 66.4675,5.757 L66.4675,5.757 Z" id="Fill-7" fill="#1A1919"></path>
                        <path d="M87.201,4.849 C87.4275,4.849 87.6025,4.788 87.725,4.665 C87.8485,4.5425 87.9095,4.3675 87.9095,4.1405 L87.9095,1.192 C87.9095,0.9655 87.8485,0.7905 87.725,0.6675 C87.6025,0.5445 87.4275,0.483 87.201,0.483 L76.852,0.483 C76.6255,0.483 76.451,0.5445 76.3275,0.6675 C76.205,0.7905 76.1435,0.9655 76.1435,1.192 L76.1435,19.6205 C76.1435,19.8475 76.205,20.0225 76.3275,20.145 C76.451,20.268 76.6255,20.3295 76.852,20.3295 L79.971,20.3295 C80.198,20.3295 80.3725,20.268 80.4955,20.145 C80.6185,20.0225 80.68,19.8475 80.68,19.6205 L80.68,13.3265 L87.059,13.3265 C87.286,13.3265 87.4605,13.265 87.5835,13.142 C87.7065,13.0195 87.7675,12.8445 87.7675,12.6175 L87.7675,9.669 C87.7675,9.4425 87.7065,9.2675 87.5835,9.1445 C87.4605,9.022 87.286,8.9605 87.059,8.9605 L80.68,8.9605 L80.68,4.849 L87.201,4.849" id="Fill-8" fill="#1A1919"></path>
                        <path d="M97.132,16.587 C96.513,16.582 95.955,16.4455 95.4685,16.1665 C94.977,15.892 94.5895,15.505 94.3065,15.004 C94.0225,14.503 93.876,13.917 93.8715,13.242 C93.876,12.566 94.0225,11.98 94.3065,11.479 C94.5895,10.978 94.977,10.591 95.4685,10.3165 C95.955,10.038 96.513,9.901 97.132,9.896 C97.751,9.901 98.308,10.038 98.7955,10.3165 C99.2865,10.591 99.674,10.978 99.9575,11.479 C100.241,11.98 100.3875,12.566 100.392,13.242 C100.3875,13.917 100.241,14.503 99.9575,15.004 C99.674,15.505 99.2865,15.892 98.7955,16.1665 C98.308,16.4455 97.751,16.582 97.132,16.587 Z M97.132,20.726 C98.1815,20.722 99.159,20.528 100.0665,20.15 C100.969,19.772 101.767,19.2475 102.4525,18.567 C103.138,17.891 103.6715,17.097 104.059,16.195 C104.442,15.2875 104.64,14.305 104.645,13.242 C104.64,12.1785 104.442,11.1955 104.059,10.288 C103.6715,9.386 103.138,8.592 102.4525,7.916 C101.767,7.2355 100.969,6.711 100.0665,6.333 C99.159,5.955 98.1815,5.762 97.132,5.757 C96.0825,5.762 95.105,5.955 94.1975,6.333 C93.295,6.711 92.496,7.2355 91.811,7.916 C91.126,8.592 90.592,9.386 90.2045,10.288 C89.822,11.1955 89.6235,12.1785 89.619,13.242 C89.6235,14.305 89.822,15.2875 90.2045,16.195 C90.592,17.097 91.126,17.891 91.811,18.567 C92.496,19.2475 93.295,19.772 94.1975,20.15 C95.105,20.528 96.0825,20.722 97.132,20.726 L97.132,20.726 Z" id="Fill-9" fill="#1A1919"></path>
                        <path d="M118.478,6.1535 L115.643,6.1535 C115.416,6.1535 115.2415,6.215 115.1185,6.338 C114.9955,6.461 114.934,6.6355 114.934,6.8625 L114.934,14.432 C114.93,15.2635 114.7405,15.8685 114.3765,16.2515 C114.013,16.6295 113.507,16.819 112.8645,16.814 C112.5005,16.814 112.1795,16.743 111.891,16.601 C111.6075,16.4545 111.3855,16.2325 111.2205,15.93 C111.055,15.633 110.9695,15.245 110.965,14.7725 L110.965,6.8625 C110.965,6.6355 110.9035,6.461 110.781,6.338 C110.658,6.215 110.483,6.1535 110.256,6.1535 L107.421,6.1535 C107.194,6.1535 107.0195,6.215 106.8965,6.338 C106.7735,6.461 106.712,6.6355 106.712,6.8625 L106.712,15.141 C106.722,16.327 106.9155,17.3335 107.303,18.165 C107.6905,18.9965 108.22,19.63 108.9,20.065 C109.5805,20.5045 110.36,20.722 111.2485,20.726 C111.8535,20.722 112.392,20.651 112.8595,20.509 C113.332,20.3625 113.744,20.164 114.0835,19.9095 C114.429,19.6585 114.712,19.3655 114.934,19.0345 L114.934,19.6205 C114.934,19.8475 114.9955,20.0225 115.1185,20.145 C115.2415,20.268 115.416,20.3295 115.643,20.3295 L118.478,20.3295 C118.705,20.3295 118.8795,20.268 119.0025,20.145 C119.1255,20.0225 119.187,19.8475 119.187,19.6205 L119.187,6.8625 C119.187,6.6355 119.1255,6.461 119.0025,6.338 C118.8795,6.215 118.705,6.1535 118.478,6.1535" id="Fill-10" fill="#1A1919"></path>
                        <path d="M130.244,5.757 C129.6395,5.762 129.1005,5.8325 128.633,5.974 C128.1605,6.1205 127.749,6.319 127.409,6.5745 C127.064,6.825 126.7805,7.1175 126.558,7.4485 L126.558,6.8625 C126.558,6.6355 126.4965,6.461 126.3735,6.338 C126.251,6.215 126.0765,6.1535 125.849,6.1535 L123.0145,6.1535 C122.787,6.1535 122.6125,6.215 122.49,6.338 C122.367,6.461 122.306,6.6355 122.306,6.8625 L122.306,19.6205 C122.306,19.8475 122.367,20.0225 122.49,20.145 C122.6125,20.268 122.787,20.3295 123.0145,20.3295 L125.849,20.3295 C126.0765,20.3295 126.251,20.268 126.3735,20.145 C126.4965,20.0225 126.558,19.8475 126.558,19.6205 L126.558,12.051 C126.563,11.2195 126.752,10.6145 127.116,10.2315 C127.4795,9.8535 127.9855,9.6645 128.628,9.669 C128.992,9.669 129.313,9.74 129.601,9.882 C129.885,10.0285 130.107,10.2505 130.2725,10.553 C130.4375,10.8505 130.5225,11.2385 130.5275,11.7105 L130.5275,19.6205 C130.5275,19.8475 130.589,20.0225 130.7115,20.145 C130.8345,20.268 131.0095,20.3295 131.2365,20.3295 L134.0715,20.3295 C134.2985,20.3295 134.4735,20.268 134.5965,20.145 C134.719,20.0225 134.7805,19.8475 134.7805,19.6205 L134.7805,11.342 C134.771,10.156 134.5775,9.1495 134.1895,8.318 C133.802,7.4865 133.2725,6.853 132.5925,6.4185 C131.9115,5.9785 131.1325,5.762 130.244,5.757" id="Fill-11" fill="#1A1919"></path>
                        <path d="M144.4485,16.7005 C143.791,16.696 143.21,16.554 142.7045,16.2755 C142.199,15.996 141.802,15.5995 141.514,15.0845 C141.225,14.5695 141.079,13.955 141.0745,13.242 C141.079,12.528 141.225,11.9135 141.514,11.399 C141.802,10.8835 142.199,10.487 142.7045,10.208 C143.21,9.9295 143.791,9.787 144.4485,9.783 C145.105,9.787 145.686,9.9295 146.1915,10.208 C146.6975,10.487 147.0945,10.8835 147.3825,11.399 C147.671,11.9135 147.817,12.528 147.822,13.242 C147.817,13.955 147.671,14.5695 147.3825,15.0845 C147.0945,15.5995 146.6975,15.996 146.1915,16.2755 C145.686,16.554 145.105,16.696 144.4485,16.7005 Z M151.366,0.483 L148.531,0.483 C148.304,0.483 148.129,0.5445 148.006,0.6675 C147.8835,0.7905 147.822,0.9655 147.822,1.192 L147.822,7.4765 C147.349,6.933 146.7635,6.513 146.064,6.2105 C145.3695,5.9125 144.5425,5.762 143.598,5.757 C142.662,5.762 141.7875,5.955 140.9705,6.333 C140.158,6.711 139.4395,7.2355 138.8155,7.916 C138.1965,8.592 137.71,9.386 137.36,10.288 C137.006,11.1955 136.8265,12.1785 136.8215,13.242 C136.8265,14.305 137.006,15.2875 137.36,16.195 C137.71,17.097 138.1965,17.891 138.8155,18.567 C139.4395,19.2475 140.158,19.772 140.9705,20.15 C141.7875,20.528 142.662,20.722 143.598,20.726 C144.5425,20.722 145.3695,20.5705 146.064,20.2725 C146.7635,19.9705 147.349,19.55 147.822,19.0065 L147.822,19.6205 C147.822,19.8475 147.8835,20.0225 148.006,20.145 C148.129,20.268 148.304,20.3295 148.531,20.3295 L151.366,20.3295 C151.593,20.3295 151.7675,20.268 151.8905,20.145 C152.0135,20.0225 152.075,19.8475 152.075,19.6205 L152.075,1.192 C152.075,0.9655 152.0135,0.7905 151.8905,0.6675 C151.7675,0.5445 151.593,0.483 151.366,0.483 L151.366,0.483 Z" id="Fill-12" fill="#1A1919"></path>
                        <g id="Group-16" transform="translate(155.000000, 5.500000)">
                            <mask id="mask-4" fill="white">
                                <use xlink:href="#path-3"></use>
                            </mask>
                            <g id="Clip-14"></g>
                            <path d="M7.384,0.427 C6.9115,0.4975 6.4815,0.635 6.089,0.843 C5.6975,1.0505 5.3565,1.325 5.0735,1.6695 C4.7895,2.01 4.5775,2.421 4.4355,2.8935 L4.4355,1.3625 C4.4355,1.1355 4.374,0.961 4.251,0.838 C4.128,0.715 3.9535,0.6535 3.7265,0.6535 L0.891,0.6535 C0.6645,0.6535 0.49,0.715 0.367,0.838 C0.244,0.961 0.1825,1.1355 0.1825,1.3625 L0.1825,14.1205 C0.1825,14.3475 0.244,14.5225 0.367,14.645 C0.49,14.768 0.6645,14.8295 0.891,14.8295 L3.7265,14.8295 C3.9535,14.8295 4.128,14.768 4.251,14.645 C4.374,14.5225 4.4355,14.3475 4.4355,14.1205 L4.4355,8.1385 C4.4405,7.5715 4.5255,7.0945 4.7,6.7015 C4.87,6.3145 5.1065,5.998 5.399,5.762 C5.6925,5.53 6.028,5.36 6.3965,5.261 C6.7695,5.1615 7.1525,5.119 7.5545,5.1335 C7.7385,5.1335 7.88,5.0765 7.9745,4.963 C8.074,4.8495 8.121,4.68 8.121,4.4525 L8.121,1.107 C8.121,0.876 8.0595,0.6965 7.932,0.5635 C7.809,0.436 7.625,0.389 7.384,0.427" id="Fill-13" fill="#1A1919" mask="url(#mask-4)"></path>
                            <path d="M18.1765,1.249 L15.8515,8.734 L13.1585,1.221 C13.0875,1.036 12.9885,0.8945 12.8555,0.8005 C12.728,0.701 12.563,0.6535 12.3645,0.6535 L9.3025,0.6535 C9.047,0.6585 8.868,0.734 8.764,0.8855 C8.6645,1.032 8.655,1.23 8.7355,1.4755 L13.725,14.6025 L12.0245,19.7055 C11.944,19.961 11.958,20.1595 12.067,20.2915 C12.1755,20.429 12.3595,20.5 12.6195,20.5 L15.6815,20.5 C15.885,20.5 16.055,20.457 16.2015,20.363 C16.343,20.273 16.447,20.131 16.5035,19.9325 L22.6275,1.448 C22.708,1.192 22.694,0.9935 22.585,0.857 C22.4765,0.7245 22.292,0.6535 22.0325,0.6535 L18.9705,0.6535 C18.772,0.6535 18.602,0.701 18.4695,0.8005 C18.3325,0.8995 18.233,1.0505 18.1765,1.249" id="Fill-15" fill="#1A1919" mask="url(#mask-4)"></path>
                        </g>
                    </g>
                    <g id="Group-5-Copy-11">
                        <path d="M11.3873969,24.2640479 L11.5277835,23.9024681 L11.648067,23.5613298 L11.9291753,22.8385053 L12.2508247,22.1552234 L12.5718041,21.4722766 L12.9336598,20.8094362 L13.3149485,20.1465957 L13.7166753,19.5239681 L14.1586082,18.9010053 L14.6002062,18.2783777 L14.8213402,17.9972234 L15.0622423,17.6959628 L15.3031443,17.4148085 L15.5641495,17.1336543 L15.8053866,16.8525 L16.0663918,16.5713457 L16.5884021,16.0288085 L17.1509536,15.5067128 L17.4323969,15.2657713 L17.9942784,14.7835532 L18.2958247,14.5426117 L18.596701,14.3013351 L18.8982474,14.0805 L19.5207732,13.6586011 L19.8420876,13.437766 L20.1634021,13.2370372 L20.4847165,13.0359734 L20.8060309,12.855016 L21.4885309,12.4736649 L21.8302835,12.3128138 L22.171701,12.1321915 L22.5131186,11.9716755 L22.8746392,11.8309309 L23.2157216,11.6700798 L23.5772423,11.5293351 L23.9390979,11.3889255 L24.3006186,11.2682872 L25.0434278,11.0273457 L25.7865722,10.8065106 L26.1681959,10.7059787 L26.5498196,10.6255532 L26.9515464,10.5253564 L27.3328351,10.4650372 L27.7144588,10.3846117 L28.1161856,10.3242926 L28.5179124,10.2639734 L28.9196392,10.2240957 L29.3210309,10.183883 L29.7227577,10.1436702 L30.2648711,10.1235638 L30.7872165,10.1034574 L31.8516753,10.1034574 L32.3941237,10.1436702 L32.916134,10.1634415 L33.4381443,10.2240957 L33.9403866,10.2844149 L34.462732,10.3648404 L34.9646392,10.4449309 L35.4866495,10.5454628 L35.9885567,10.665766 L36.4706959,10.7864043 L36.9729381,10.9067074 L37.4547423,11.0678936 L37.9368814,11.2284096 L38.4186856,11.3889255 L38.9008247,11.569883 L39.8248969,11.9716755 L40.2865979,12.1925106 L40.7285309,12.4133457 L41.1701289,12.6546223 L41.6120619,12.8955638 L42.0539948,13.1566117 L42.4754897,13.4176596 L42.8973196,13.6988138 L43.2990464,13.9803032 L43.7208763,14.2812287 L44.1021649,14.5824894 L44.5035567,14.9041915 L44.8855155,15.2255585 L45.2470361,15.5666968 L45.6286598,15.9085053 L45.9697423,16.2496436 L46.3315979,16.6115585 L46.6730155,16.9731383 L47.3156443,17.7361755 L47.6369588,18.1379681 L47.9378351,18.5397606 L48.2393814,18.9415532 L48.5204897,19.363117 L48.801933,19.785016 L49.0626031,20.2069149 L49.3239433,20.6485851 L49.8060825,21.5325957 L50.2476804,22.456484 L50.4487113,22.9185957 L50.6490722,23.4004787 L50.83,23.8826968 L50.9908247,24.3645798 L51.1513144,24.8669043 L51.4324227,25.8712181 L51.5533763,26.3732074 L51.7537371,27.4180691 L51.9145619,28.4622606 L51.9748711,29.0047979 L52.0147423,29.5268936 L52.0351804,29.868367 L52.0552835,30.2101755 L52.0552835,31.8971011 L52.0351804,32.2385745 L51.8944588,32.5998191 L51.7741753,32.9613989 L51.493067,33.6647872 L51.0105928,34.6892074 L50.8501031,35.0303457 L50.4885825,35.7132926 L50.1069588,36.3560266 L49.705567,36.9990957 L49.2639691,37.6217234 L48.821701,38.2242447 L48.6009021,38.5255053 L48.3596649,38.8066596 L48.1190979,39.1079202 L47.8577577,39.3890745 L47.6168557,39.6705638 L47.3558505,39.9316117 L46.8338402,40.4741489 L46.2712887,40.9962447 L45.9901804,41.2371862 L45.7087371,41.498234 L45.4276289,41.7395106 L45.1264175,41.9603457 L44.8252062,42.2012872 L44.5239948,42.4224574 L43.9018041,42.8641277 L43.5801546,43.0651915 L43.2588402,43.2662553 L42.9375258,43.4666489 L42.6162113,43.6677128 L41.9333763,44.0292926 L41.5919588,44.2099149 L41.2508763,44.370766 L40.9091237,44.5312819 L40.5677062,44.6917979 L39.8446649,44.9732872 L39.4831443,45.1136968 L39.1216237,45.2544415 L38.3784794,45.495383 L37.6353351,45.7162181 L37.2540464,45.7966436 L36.8724227,45.8971755 L36.4706959,45.9776011 L36.0890722,46.0580266 L35.7077835,46.1180106 L35.3057216,46.1783298 L34.9043299,46.2386489 L34.5026031,46.2788617 L34.1012113,46.3190745 L33.6991495,46.3592872 L33.358067,46.3793936 L32.9962113,46.3995 L31.6104381,46.3995 L31.2690206,46.3793936 L30.9279381,46.3793936 L30.5861856,46.3388457 L30.2648711,46.3190745 L29.9237887,46.2788617 L29.5820361,46.2386489 L28.9196392,46.1384521 L28.2569072,46.0379202 L21.7699742,54.3736915 L15.3031443,62.7299043 L17.1308505,52.1844415 L18.9786598,41.6590851 L18.576933,41.3176117 L18.3960052,41.1570957 L18.1953093,40.9764734 L17.8133505,40.6142234 L17.0906443,39.8913989 L16.7291237,39.5097128 L16.0462887,38.7061277 L15.7249742,38.3046702 L15.4036598,37.8827713 L15.1024485,37.4608723 L14.8213402,37.0393085 L14.2591237,36.1552979 L13.9977835,35.6935213 L13.5159794,34.7692979 L13.2747423,34.2874149 L13.0740464,33.8051968 L12.8532474,33.3032074 L12.6726546,32.8213245 L12.4917268,32.319 L12.3309021,31.7965691 L12.1704124,31.2945798 L12.0300258,30.7721489 L11.8893041,30.2500532 L11.5877577,28.6227766 L11.5076804,28.0805745 L11.4473711,27.5383723 L11.4071649,26.9760638 L11.3873969,26.6345904 L11.3669588,26.293117 L11.3669588,24.9473298 L11.3873969,24.6058564 L11.3873969,24.2640479 Z M39.403067,28.3017447 L39.4228351,28.5426862 L39.4429381,28.7839628 L39.4831443,28.904266 L39.5032474,29.0047979 L39.5836598,29.225633 L39.6841753,29.4464681 L39.7441495,29.547 L39.8044588,29.6475319 L39.9451804,29.8281543 L40.1060052,30.0087766 L40.2865979,30.1498564 L40.4671907,30.290266 L40.5677062,30.35025 L40.6678866,30.4105691 L40.8689175,30.5111011 L41.0897165,30.5911915 L41.2103351,30.6314043 L41.3309536,30.6518457 L41.4512371,30.671617 L41.5718557,30.6917234 L41.6921392,30.7121649 L41.8127577,30.7121649 L42.0539948,30.6917234 L42.2948969,30.6518457 L42.4151804,30.6314043 L42.535799,30.5911915 L42.756933,30.5111011 L42.9572938,30.4105691 L43.0578093,30.35025 L43.1586598,30.290266 L43.3392526,30.1498564 L43.5198454,30.0087766 L43.6803351,29.8281543 L43.8210567,29.6475319 L43.9416753,29.4464681 L44.0421907,29.225633 L44.1226031,29.0047979 L44.1423711,28.904266 L44.1825773,28.7839628 L44.2026804,28.6633245 L44.2026804,28.5426862 L44.2227835,28.422383 L44.2227835,28.3017447 L44.2026804,28.0403617 L44.1825773,27.8195266 L44.1423711,27.6988883 L44.1226031,27.5785851 L44.0421907,27.35775 L43.9416753,27.1566862 L43.8210567,26.9559574 L43.6803351,26.7548936 L43.5198454,26.5943777 L43.3392526,26.4335266 L43.1586598,26.293117 L43.0578093,26.2327979 L42.9572938,26.1724787 L42.756933,26.0722819 L42.535799,25.9918564 L42.4151804,25.97175 L42.2948969,25.9315372 L42.1742784,25.9114309 L42.0539948,25.8913245 L41.5718557,25.8913245 L41.3309536,25.9315372 L41.2103351,25.97175 L41.0897165,25.9918564 L40.8689175,26.0722819 L40.6678866,26.1724787 L40.5677062,26.2327979 L40.4671907,26.293117 L40.2865979,26.4335266 L40.1060052,26.5943777 L39.9451804,26.7548936 L39.8044588,26.9559574 L39.7441495,27.0561543 L39.6841753,27.1566862 L39.5836598,27.35775 L39.5032474,27.5785851 L39.4831443,27.6988883 L39.4429381,27.8195266 L39.4228351,27.9203936 L39.4228351,28.0403617 L39.403067,28.1811064 L39.403067,28.3017447 Z M29.3612371,28.3017447 L29.3612371,28.5426862 L29.4014433,28.7839628 L29.4416495,28.904266 L29.4617526,29.0047979 L29.5418299,29.225633 L29.6423454,29.4464681 L29.7029897,29.547 L29.7629639,29.6475319 L29.9033505,29.8281543 L30.0641753,30.0087766 L30.2246649,30.1498564 L30.4256959,30.290266 L30.5262113,30.35025 L30.6267268,30.4105691 L30.8274227,30.5111011 L31.0482216,30.5911915 L31.1688402,30.6314043 L31.2894588,30.6518457 L31.4097423,30.671617 L31.5303608,30.6917234 L31.6506443,30.7121649 L31.7715979,30.7121649 L32.0121649,30.6917234 L32.2534021,30.6518457 L32.3736856,30.6314043 L32.4943041,30.5911915 L32.7151031,30.5111011 L32.916134,30.4105691 L33.0163144,30.35025 L33.1168299,30.290266 L33.2974227,30.1498564 L33.4783505,30.0087766 L33.6187371,29.8281543 L33.7594588,29.6475319 L33.8800773,29.4464681 L33.9802577,29.225633 L34.0610052,29.0047979 L34.1012113,28.904266 L34.1209794,28.7839628 L34.1410825,28.6633245 L34.1812887,28.422383 L34.1812887,28.3017447 L34.1611856,28.0403617 L34.1209794,27.8195266 L34.1012113,27.6988883 L34.0610052,27.5785851 L33.9802577,27.35775 L33.8800773,27.1566862 L33.7594588,26.9559574 L33.6187371,26.7548936 L33.4783505,26.5943777 L33.2974227,26.4335266 L33.1168299,26.293117 L33.0163144,26.2327979 L32.916134,26.1724787 L32.7151031,26.0722819 L32.4943041,25.9918564 L32.3736856,25.97175 L32.2534021,25.9315372 L32.1327835,25.9114309 L32.0121649,25.8913245 L31.5303608,25.8913245 L31.2894588,25.9315372 L31.1688402,25.97175 L31.0482216,25.9918564 L30.8274227,26.0722819 L30.6267268,26.1724787 L30.5262113,26.2327979 L30.4256959,26.293117 L30.2246649,26.4335266 L30.0641753,26.5943777 L29.9033505,26.7548936 L29.7629639,26.9559574 L29.7029897,27.0561543 L29.6423454,27.1566862 L29.5418299,27.35775 L29.4617526,27.5785851 L29.4416495,27.6988883 L29.4014433,27.8195266 L29.3816753,27.9203936 L29.3612371,28.0403617 L29.3612371,28.3017447 Z M19.3197423,28.3017447 L19.3197423,28.5426862 L19.3800515,28.904266 L19.4199227,29.0047979 L19.5003351,29.225633 L19.6008505,29.4464681 L19.7214691,29.6475319 L19.8621907,29.8281543 L20.0226804,30.0087766 L20.1835052,30.1498564 L20.384201,30.290266 L20.4642784,30.35025 L20.5647938,30.4105691 L20.7855928,30.5111011 L21.0070619,30.5911915 L21.1273454,30.6314043 L21.2476289,30.6518457 L21.3481443,30.671617 L21.4687629,30.6917234 L21.6091495,30.7121649 L21.729768,30.7121649 L21.9710052,30.6917234 L22.2119072,30.6518457 L22.3325258,30.6314043 L22.4327062,30.5911915 L22.6538402,30.5111011 L22.8746392,30.4105691 L22.9751546,30.35025 L23.0753351,30.290266 L23.2559278,30.1498564 L23.4368557,30.0087766 L23.5772423,29.8281543 L23.7179639,29.6475319 L23.8385825,29.4464681 L23.9390979,29.225633 L24.0191753,29.0047979 L24.0593814,28.904266 L24.0995876,28.6633245 L24.1397938,28.422383 L24.1397938,28.3017447 L24.1196907,28.0403617 L24.0794845,27.8195266 L24.0593814,27.6988883 L24.0191753,27.5785851 L23.9390979,27.35775 L23.8385825,27.1566862 L23.7179639,26.9559574 L23.5772423,26.7548936 L23.4368557,26.5943777 L23.2559278,26.4335266 L23.0753351,26.293117 L22.9751546,26.2327979 L22.8746392,26.1724787 L22.6538402,26.0722819 L22.4327062,25.9918564 L22.3325258,25.97175 L22.2119072,25.9315372 L22.0912887,25.9114309 L21.9710052,25.8913245 L21.4687629,25.8913245 L21.2476289,25.9315372 L21.1273454,25.97175 L21.0070619,25.9918564 L20.7855928,26.0722819 L20.5647938,26.1724787 L20.4642784,26.2327979 L20.384201,26.293117 L20.1835052,26.4335266 L20.0226804,26.5943777 L19.8621907,26.7548936 L19.7214691,26.9559574 L19.6008505,27.1566862 L19.5003351,27.35775 L19.4199227,27.5785851 L19.3800515,27.6988883 L19.3599485,27.8195266 L19.3398454,27.9203936 L19.3197423,28.0403617 L19.3197423,28.3017447 L19.3197423,28.3017447 Z" id="Fill-17" fill="#FF7C0F"></path>
                        <polyline id="Fill-18" fill="#1A1919" points="11.3873969 24.2640479 11.427268 23.7821649 11.4674742 23.2999468 11.5277835 22.8385053 11.5877577 22.3559521 11.6685052 21.8938404 11.7683505 21.4122926 11.8490979 20.9501809 11.9697165 20.4880691 12.09 20.0463989 12.2106186 19.5842872 12.3510052 19.1422819 12.4917268 18.7006117 12.6522165 18.2586064 12.8331443 17.8166011 12.9939691 17.3749309 13.1943299 16.9526968 13.3752577 16.531133 13.5960567 16.109234 13.7970876 15.7074415 14.0178866 15.305984 14.5000258 14.502734 14.7409278 14.1207128 15.001933 13.7189202 15.2629381 13.3576755 15.5443814 12.9756543 16.106933 12.2528298 16.4078093 11.89125 16.7086856 11.5497766 17.0303351 11.2079681 17.3516495 10.8866011 17.6729639 10.5454628 18.0147165 10.243867 18.355799 9.92283511 18.6972165 9.62123936 19.0587371 9.32031383 19.4199227 9.03915957 19.7817784 8.75767021 20.1634021 8.47651596 20.5450258 8.21546809 20.9263144 7.95408511 21.3079381 7.71314362 21.7096649 7.47220213 22.1314948 7.23092553 22.5328866 7.01009043 23.3765464 6.60863298 23.7983763 6.40723404 24.2403093 6.2266117 24.6819072 6.04598936 25.1238402 5.8854734 25.5654381 5.72462234 26.0274742 5.56410638 26.4694072 5.44313298 26.9314433 5.3027234 27.4132474 5.2025266 27.8752835 5.0818883 28.3570876 5.00146277 28.8392268 4.90093085 29.3210309 4.84094681 30.2849742 4.72030851 30.7872165 4.68009574 31.3293299 4.63988298 31.8717784 4.63988298 32.3941237 4.6197766 32.9359021 4.63988298 33.4582474 4.66032447 33.9802577 4.70053723 34.5026031 4.74041489 35.0246134 4.80039894 35.5268557 4.88115957 36.048866 4.96125 36.5511082 5.06211702 37.0533505 5.18242021 37.5552577 5.3027234 38.0373969 5.44313298 38.5393041 5.58387766 39.0211082 5.74472872 39.4831443 5.92568617 39.9652835 6.10630851 40.4269845 6.28726596 40.8886856 6.50810106 41.3507216 6.70882979 41.8127577 6.94977128 42.2546907 7.17094149 42.6966237 7.43198936 43.1181186 7.67293085 43.5399485 7.95408511 43.9617784 8.21546809 44.3832732 8.51672872 44.785 8.79788298 45.1867268 9.11925 45.5683505 9.42051064 45.9499742 9.76198404 46.3315979 10.0833511 46.6931186 10.4248245 47.0546392 10.7864043 47.3957216 11.147984 47.7371392 11.5095638 48.0785567 11.89125 48.3998711 12.2726011 48.7014175 12.6546223 49.022732 13.0560798 49.3038402 13.4578723 49.6050515 13.8794362 49.8660567 14.3013351 50.1471649 14.7433404 50.388067 15.1652394 50.6490722 15.6069096 50.8702062 16.0690213 51.1111082 16.531133 51.3121392 16.9929096 51.5128351 17.4550213 51.713866 17.9372394 51.8944588 18.4191223 52.0552835 18.9010053 52.2157732 19.3832234 52.3564948 19.8852128 52.4968814 20.3875372 52.6171649 20.9099681 52.7381186 21.4122926 52.8185309 21.9343883 52.9187113 22.456484 52.9790206 22.9986862 53.0393299 23.521117 53.079201 24.0633191 53.1194072 24.6058564 53.1395103 25.1282872 53.1395103 25.650383 53.1194072 26.1925851 53.0996392 26.715016 53.0192268 27.7592074 52.9589175 28.2615319 52.8788402 28.7839628 52.7980928 29.2859521 52.597732 30.290266 52.4570103 30.7721489 52.3360567 31.2741383 52.1956701 31.7566915 52.0351804 32.2385745 52.0552835 31.575734 52.0552835 30.2101755 52.0147423 29.5268936 51.9748711 29.0047979 51.9145619 28.4622606 51.7537371 27.4180691 51.5533763 26.3732074 51.4324227 25.8712181 51.1513144 24.8669043 50.9908247 24.3645798 50.83 23.8826968 50.6490722 23.4004787 50.4487113 22.9185957 50.2476804 22.456484 49.8060825 21.5325957 49.3239433 20.6485851 49.0626031 20.2069149 48.801933 19.785016 48.5204897 19.363117 48.2393814 18.9415532 47.9378351 18.5397606 47.6369588 18.1379681 47.3156443 17.7361755 46.6730155 16.9731383 46.3315979 16.6115585 45.9697423 16.2496436 45.6286598 15.9085053 45.2470361 15.5666968 44.8855155 15.2255585 44.5035567 14.9041915 44.1021649 14.5824894 43.7208763 14.2812287 43.2990464 13.9803032 42.8973196 13.6988138 42.4754897 13.4176596 42.0539948 13.1566117 41.6120619 12.8955638 41.1701289 12.6546223 40.7285309 12.4133457 40.2865979 12.1925106 39.8248969 11.9716755 38.9008247 11.569883 38.4186856 11.3889255 37.9368814 11.2284096 37.4547423 11.0678936 36.9729381 10.9067074 36.4706959 10.7864043 35.9885567 10.665766 35.4866495 10.5454628 34.9646392 10.4449309 34.462732 10.3648404 33.9403866 10.2844149 33.4381443 10.2240957 32.916134 10.1634415 32.3941237 10.1436702 31.8516753 10.1034574 30.7872165 10.1034574 30.2648711 10.1235638 29.7227577 10.1436702 28.9196392 10.2240957 28.1161856 10.3242926 27.7144588 10.3846117 27.3328351 10.4650372 26.9515464 10.5253564 26.5498196 10.6255532 25.7865722 10.8065106 25.4250515 10.9067074 25.0434278 11.0273457 24.6618041 11.1275426 24.3006186 11.2682872 23.5772423 11.5293351 22.8746392 11.8309309 22.5131186 11.9716755 22.171701 12.1321915 21.4885309 12.4736649 20.8060309 12.855016 20.4847165 13.0359734 20.1634021 13.2370372 19.5207732 13.6586011 19.2195619 13.8596649 18.8982474 14.0805 18.596701 14.3013351 18.2958247 14.5426117 17.7135052 15.0244947 17.4323969 15.2657713 17.1509536 15.5067128 16.8698454 15.7677606 16.5884021 16.0288085 16.0663918 16.5713457 15.8053866 16.8525 15.5641495 17.1336543 15.3031443 17.4148085 15.0622423 17.6959628 14.6002062 18.2783777 14.1586082 18.9010053 13.7166753 19.5239681 13.5159794 19.8252287 13.3149485 20.1465957 12.9336598 20.8094362 12.752732 21.1308032 12.5718041 21.4722766 12.2508247 22.1552234 11.9291753 22.8385053 11.7887887 23.2000851 11.648067 23.5613298 11.3873969 24.2640479"></polyline>
                        <polyline id="Fill-19" fill="#1A1919" points="55.5696392 40.9355904 55.3890464 41.3377181 55.1880155 41.7592819 55.0074227 42.1610745 54.8063918 42.562867 54.3647938 43.366117 54.1439948 43.7682447 53.9027577 44.1697021 53.6015464 44.6720266 53.280232 45.1539096 52.9589175 45.656234 52.6171649 46.1180106 52.2559794 46.5801223 51.9145619 47.0418989 51.5533763 47.4839043 51.1714175 47.9259096 50.4085052 48.7693723 50.0067784 49.1912713 49.6050515 49.5729574 49.1832216 49.97475 48.7613918 50.3564362 48.3398969 50.718016 47.918067 51.0795957 47.4764691 51.4210691 47.034201 51.7622074 46.5725 52.0839096 46.1104639 52.4052766 45.6484278 52.7065372 45.1867268 53.0077979 44.7049227 53.2892872 44.2227835 53.5704415 43.7406443 53.8314894 43.2588402 54.0925372 42.756933 54.3334787 42.2546907 54.5747553 41.7527835 54.7955904 41.2508763 54.9963191 40.7285309 55.197383 40.2061856 55.3981117 39.6841753 55.5790691 39.1618299 55.73925 38.6398196 55.9004362 38.1174742 56.0408457 37.5753608 56.1815904 37.0332474 56.3018936 36.5109021 56.4221968 35.9687887 56.5230638 35.4266753 56.6235957 34.8842268 56.7036862 34.3216753 56.7640053 33.7798969 56.8243245 33.2374485 56.8645372 32.675232 56.90475 32.1327835 56.9245213 31.570567 56.9446277 31.0284536 56.9446277 30.4659021 56.9245213 29.9237887 56.90475 29.3612371 56.8645372 28.8191237 56.8243245 28.2569072 56.7640053 27.6946907 56.6839149 27.1522423 56.6031543 26.5900258 56.5029574 26.0479124 56.4027606 25.5051289 56.2817872 24.9432474 56.161484 24.400799 56.0207394 23.8583505 55.8602234 22.7741237 55.4983085 27.4936598 49.4727606 28.1161856 49.5930638 28.7387113 49.7137021 29.3816753 49.7941277 30.003866 49.8742181 30.6464948 49.9345372 31.2894588 49.97475 31.9320876 49.9948564 32.5948196 50.0149628 33.2173454 49.9948564 33.8398711 49.97475 34.462732 49.9345372 35.0648196 49.8946596 35.6672423 49.814234 36.2696649 49.7334734 36.8724227 49.6332766 37.4748454 49.5126383 38.0571649 49.3923351 38.6398196 49.2515904 39.2221392 49.0910745 39.7843557 48.9302234 40.3465722 48.7496011 40.9091237 48.5485372 41.4713402 48.3277021 42.0137887 48.106867 42.5559021 47.8655904 43.0782474 47.6246489 43.6002577 47.3636011 44.1226031 47.0824468 44.6245103 46.8009574 45.1465206 46.5000319 45.6286598 46.1987713 46.1104639 45.8774043 46.5926031 45.5560372 47.0744072 45.2142287 47.5364433 44.8526489 47.9783763 44.4914043 48.4199742 44.109383 48.8619072 43.7276968 49.2837371 43.3262394 49.705567 42.9244468 50.1069588 42.5025479 50.5086856 42.0806489 50.8903093 41.6590851 51.2518299 41.2170798 51.6334536 40.7549681 52.3162887 39.8314149 52.6573711 39.3491968 52.9790206 38.8669787 53.5814433 37.863 53.8625515 37.3603404 54.1439948 36.8385798 54.4046649 36.3161489 54.8871392 35.2314096 55.1079381 34.6892074 55.308634 34.1466702 55.5093299 33.5843617 55.6902577 33.0220532 55.8708505 32.4393032 56.0112371 31.8568883 56.1723969 31.2741383 56.4129639 30.1096436 56.5134794 29.5067872 56.5935567 28.904266 56.654201 28.3017447 56.7145103 27.679117 56.7547165 27.0561543 56.7748196 26.4539681 56.7748196 25.1882713 56.7547165 24.5656436 56.7145103 23.9631223 56.654201 23.3404947 56.5935567 22.7379734 56.5134794 22.135117 56.4129639 21.5325957 56.2926804 20.9501809 56.1723969 20.3473245 56.0112371 19.7649096 55.8708505 19.2026011 55.6902577 18.6201862 55.5093299 18.0575426 55.308634 17.495234 55.1079381 16.9526968 54.8871392 16.4104947 54.4046649 15.3260904 54.1439948 14.8036596 53.8625515 14.2812287 53.5814433 13.7792394 52.9790206 12.7749255 52.6573711 12.2930426 52.3162887 11.8108245 51.6334536 10.8866011 51.2518299 10.4248245 50.8903093 9.98281915 50.5086856 9.56125532 50.1069588 9.13935638 49.705567 8.71745745 49.2837371 8.31566489 48.8619072 7.91387234 48.4199742 7.53252128 47.9783763 7.15083511 47.5364433 6.78925532 47.0744072 6.42767553 46.5926031 6.08620213 46.1104639 5.76483511 45.6286598 5.44313298 45.1465206 5.12210106 44.6245103 4.84094681 44.1226031 4.53968617 43.6002577 4.2786383 43.0782474 4.01759043 42.5559021 3.77631383 42.0137887 3.53503723 41.4713402 3.31420213 40.9091237 3.09336702 40.3465722 2.89230319 39.7843557 2.71168085 39.2221392 2.55116489 38.6398196 2.39031383 38.0571649 2.24956915 37.4748454 2.12926596 36.8724227 2.00862766 36.2696649 1.90843085 35.6672423 1.82767021 35.0648196 1.74757979 34.462732 1.70736702 33.8398711 1.66748936 33.2173454 1.64704787 32.5948196 1.6272766 31.9719588 1.64704787 31.349768 1.66748936 30.7269072 1.70736702 30.1241495 1.74757979 29.5223969 1.82767021 28.9196392 1.90843085 28.3172165 2.00862766 27.7144588 2.12926596 27.1321392 2.24956915 26.5498196 2.39031383 25.9671649 2.55116489 25.4052835 2.71168085 24.842732 2.89230319 24.2805155 3.09336702 23.7179639 3.31420213 23.1758505 3.53503723 22.6334021 3.77631383 22.1110567 4.01759043 21.5893814 4.2786383 21.0670361 4.53968617 20.5647938 4.84094681 20.0427835 5.12210106 19.5609794 5.44313298 19.0788402 5.76483511 18.596701 6.08620213 18.1148969 6.42767553 17.6531959 6.78925532 17.2109278 7.15083511 16.327732 7.91387234 15.905567 8.31566489 15.4840722 8.71745745 15.0823454 9.13935638 14.7007216 9.56125532 14.2989948 9.98281915 13.9374742 10.4248245 13.5762887 10.8866011 13.214768 11.3487128 12.8730155 11.8108245 12.531933 12.2930426 12.2106186 12.7749255 11.9090722 13.2769149 11.6081959 13.7792394 11.3267526 14.2812287 11.0456443 14.8036596 10.7846392 15.3260904 10.5434021 15.8682926 10.3025 16.4104947 10.081701 16.9526968 9.88100515 17.495234 9.67997423 18.0575426 9.49938144 18.6201862 9.31845361 19.2026011 9.17773196 19.7649096 9.01724227 20.3473245 8.89662371 20.9501809 8.77634021 21.5325957 8.69592784 22.135117 8.59541237 22.7379734 8.53510309 23.3404947 8.47479381 23.9631223 8.43492268 24.5656436 8.41481959 25.1882713 8.41481959 26.5139521 8.45502577 27.1968989 8.49523196 27.8597394 8.55520619 28.5426862 8.63595361 29.2055266 8.73646907 29.868367 8.7964433 30.189734 8.85675258 30.5111011 8.99713918 31.1742766 9.15762887 31.8170106 9.31845361 32.4393032 9.51914948 33.0823723 9.72018041 33.6848936 9.94097938 34.3075213 10.1822165 34.9100426 10.4231186 35.5128989 10.6841237 36.0949787 10.965232 36.6773936 11.2664433 37.2601436 11.5877577 37.8224521 11.9090722 38.3649894 12.2508247 38.9075266 12.6120103 39.4493936 13.1544588 40.2328723 13.3554897 40.4741489 13.7568814 40.9764734 14.1586082 41.4784628 14.5801031 41.9603457 15.001933 42.4224574 15.443866 42.884234 15.905567 43.3262394 16.3676031 43.7682447 16.8494072 44.1898085 15.7048711 51.7826489 15.2833763 51.4810532 14.9017526 51.1596862 14.5000258 50.8587606 14.1184021 50.5169521 13.7367784 50.1955851 13.3752577 49.8544468 13.0137371 49.5126383 12.6522165 49.1513936 12.310799 48.8099202 11.9697165 48.4480053 11.6279639 48.0864255 11.3066495 47.7050745 10.9853351 47.3233883 10.6841237 46.9417021 10.3829124 46.5603511 10.081701 46.1582234 9.80025773 45.7768723 9.51914948 45.3750798 9.25814433 44.953516 8.99713918 44.5513883 8.73646907 44.1298245 8.25399485 43.2860266 8.03319588 42.8641277 7.81239691 42.4224574 7.59159794 42.0005585 7.39056701 41.5588883 7.18953608 41.1165479 6.82801546 40.2328723 6.64742268 39.7710957 6.48693299 39.308984 6.34621134 38.8669787 6.1853866 38.4052021 6.045 37.9430904 5.92471649 37.4809787 5.80409794 37.0192021 5.68347938 36.536984 5.58296392 36.0752074 5.48278351 35.5929894 5.32195876 34.6489947 5.24188144 34.1667766 5.18157216 33.6848936 5.14103093 33.2026755 5.10115979 32.7207926 5.04085052 31.7566915 5.02074742 31.2741383 5.00064433 30.7925904 5.00064433 30.3100372 5.06095361 28.8640532 5.10115979 28.3620638 5.14103093 27.8795106 5.20134021 27.3979628 5.26164948 26.9154096 5.34206186 26.4335266 5.42247423 25.9516436 5.50255155 25.4694255 5.60306701 24.9875426 5.72335052 24.5053245 5.84430412 24.0234415 0.803453608 21.8938404 0.60242268 21.7735372 0.44193299 21.6528989 0.381623711 21.5929149 0.30121134 21.5325957 0.261005155 21.4521702 0.200695876 21.3918511 0.120618557 21.2514415 0.0603092784 21.0905904 0.0201030928 20.9501809 -3.69482223e-13 20.8094362 -3.69482223e-13 20.5483883 0.0201030928 20.3473245 0.039871134 20.2069149 0.0603092784 20.1465957 1.5060567 14.502734 1.58646907 14.241016 1.70708763 14.0406223 1.80760309 13.8596649 1.90811856 13.7189202 2.02840206 13.6187234 2.12891753 13.5382979 2.24920103 13.4779787 2.34971649 13.437766 2.45023196 13.4176596 2.53064433 13.3978883 2.61072165 13.4176596 2.69113402 13.4176596 2.79131443 13.437766 2.83152062 13.4578723 8.69592784 16.0090372 8.87652062 15.5871383 9.07755155 15.1447979 9.4789433 14.2812287 9.70007732 13.8596649 9.92087629 13.4578723 10.1420103 13.0359734 10.3829124 12.6341809 10.6238144 12.2323883 10.8851546 11.8309309 11.1461598 11.4291383 11.4071649 11.0477872 11.6882732 10.665766 11.9697165 10.2844149 12.2508247 9.92283511 12.531933 9.54114894 12.8331443 9.17956915 13.1544588 8.83776064 13.4556701 8.47651596 13.7766495 8.13504255 14.4397165 7.47220213 14.7610309 7.13072872 15.1024485 6.8090266 15.4639691 6.50810106 15.8053866 6.18639894 16.1669072 5.8854734 16.5280928 5.60398404 16.9100515 5.3027234 17.2712371 5.02190426 17.6531959 4.74041489 18.0545876 4.47936702 18.4362113 4.21798404 18.8376031 3.95727128 19.6410567 3.47471809 20.4642784 3.01294149 20.8864433 2.79177128 21.3079381 2.59137766 21.729768 2.39031383 22.171701 2.18958511 22.613634 1.98852128 23.055232 1.80789894 23.4968299 1.64704787 23.9390979 1.48653191 24.400799 1.32568085 24.842732 1.18493617 25.304768 1.0445266 25.7664691 0.903781915 26.2486082 0.783478723 26.7103093 0.662840426 27.1924485 0.562643617 27.6541495 0.462111702 28.6180928 0.301595745 29.1203351 0.220835106 29.6024742 0.160851064 30.1043814 0.120973404 30.5861856 0.0800904255 31.0884278 0.040212766 31.5903351 0.020106383 32.0925773 0 33.2575515 0 33.9202835 0.020106383 34.5830155 0.0603191489 35.2256443 0.120973404 35.8883763 0.20106383 36.5313402 0.301595745 37.1739691 0.401792553 37.7961598 0.522430851 38.4186856 0.662840426 39.0412113 0.803585106 39.6637371 0.964101064 40.2664948 1.16516489 40.8689175 1.34578723 41.4713402 1.56695745 42.0539948 1.78779255 42.6564175 2.02873404 43.2189691 2.27001064 43.7808505 2.53105851 44.343067 2.81221277 44.9056186 3.1134734 45.448067 3.41473404 45.9901804 3.73610106 46.5121907 4.05746809 47.034201 4.39894149 47.5364433 4.76052128 48.0383505 5.12210106 48.5405928 5.50378723 49.022732 5.8854734 49.484768 6.28726596 49.9665722 6.70882979 50.4085052 7.13072872 50.8501031 7.55229255 51.291701 7.99463298 51.713866 8.45674468 52.1152577 8.91852128 52.9187113 9.88228723 53.280232 10.3648404 53.6615206 10.8668298 54.0032732 11.3889255 54.3446907 11.89125 54.6861082 12.4334521 54.9873196 12.9555479 55.308634 13.5181915 55.5897423 14.0603936 55.8708505 14.6230372 56.1321907 15.1853457 56.3931959 15.7677606 56.6340979 16.3501755 56.855232 16.9325904 57.0555928 17.5351117 57.2566237 18.1379681 57.4375515 18.7404894 57.5983763 19.363117 57.758866 19.9860798 57.8992526 20.6083723 58.0195361 21.2514415 58.1203866 21.8938404 58.2004639 22.5369096 58.2812113 23.1796436 58.3411856 23.842484 58.3810567 24.4852181 58.4215979 25.8108989 58.4215979 26.2327979 58.4014948 26.6345904 58.3810567 27.0561543 58.3612887 27.4582819 58.3411856 27.8597394 58.220567 29.065117 58.1002835 29.8482606 57.9595619 30.6314043 57.8992526 31.0335319 57.8191753 31.414883 57.6382474 32.1785904 57.5983763 32.6601383 64.2454639 35.5128989 64.4665979 35.6332021 64.6471907 35.7736117 64.7276031 35.8540372 64.8076804 35.9344628 64.8683247 36.0148883 64.9085309 36.1154202 64.9484021 36.1958457 64.9688402 36.2960426 64.9688402 36.536984 64.928299 36.6576223 64.8880928 36.7779255 64.8281186 36.9186702 64.7473711 37.0795213 61.353634 42.3215904 61.2531186 42.4425638 61.1529381 42.5427606 60.9519072 42.7036117 60.8513918 42.7837021 60.7307732 42.8239149 60.5300773 42.9040053 60.4097938 42.9244468 60.2090979 42.9244468 60.0881443 42.9040053 59.9678608 42.884234 59.8673454 42.8440213 59.7470619 42.7837021 59.6465464 42.723383 55.5696392 40.9355904"></polyline>
                    </g>
                </g>
            </g>
        </g>
    </g>
</svg>