<?xml version="1.0" standalone="no"?>
<!DOCTYPE svg PUBLIC "-//W3C//DTD SVG 20010904//EN"
 "http://www.w3.org/TR/2001/REC-SVG-20010904/DTD/svg10.dtd">
<svg version="1.0" xmlns="http://www.w3.org/2000/svg"
 width="280.000000pt" height="280.000000pt" viewBox="0 0 280.000000 280.000000"
 preserveAspectRatio="xMidYMid meet">
<metadata>
Created by potrace 1.11, written by Peter Selinger 2001-2013
</metadata>
<g transform="translate(0.000000,280.000000) scale(0.100000,-0.100000)"
fill="#000000" stroke="none">
<path d="M1275 2624 c-11 -2 -45 -9 -75 -15 -124 -24 -306 -106 -404 -182
-127 -99 -230 -220 -296 -349 l-44 -85 -114 49 c-121 51 -143 56 -160 36 -18
-23 -75 -263 -69 -290 6 -22 25 -34 114 -72 82 -34 108 -50 107 -63 -1 -10 -7
-54 -14 -98 -15 -97 -7 -292 15 -385 51 -211 161 -401 315 -541 61 -57 77 -66
86 -55 6 8 19 75 29 149 l19 135 -67 72 c-172 186 -254 380 -264 625 -13 300
89 544 313 754 117 109 251 182 419 227 100 27 349 27 455 0 166 -42 323 -129
443 -245 362 -349 394 -905 75 -1310 -85 -108 -256 -232 -388 -282 -151 -57
-338 -78 -505 -56 l-60 7 -85 -110 c-47 -61 -86 -117 -88 -124 -6 -25 199 -66
328 -66 390 0 742 213 935 563 20 37 43 67 51 67 8 0 51 -17 95 -37 60 -27 85
-34 97 -27 24 14 172 235 172 256 0 23 -22 36 -169 99 l-123 53 5 36 c3 19 11
71 17 115 28 188 -16 424 -113 609 -178 335 -537 548 -917 545 -63 -1 -124 -3
-135 -5z"/>
<path d="M1280 2439 c-275 -42 -514 -220 -634 -473 -60 -124 -78 -206 -79
-346 -1 -236 74 -425 239 -598 37 -39 62 -73 59 -82 -10 -36 -135 -776 -133
-789 2 -8 23 12 49 45 25 33 139 179 253 327 198 256 208 267 234 260 54 -16
253 -6 337 16 338 88 581 368 626 720 28 217 -48 463 -197 636 -103 121 -272
226 -425 264 -95 24 -243 33 -329 20z m-234 -870 c64 -60 20 -169 -68 -169
-42 0 -86 36 -94 75 -18 98 90 161 162 94z m386 10 c26 -14 48 -67 41 -101
-13 -68 -106 -97 -157 -49 -36 34 -37 101 -1 136 26 27 80 34 117 14z m419
-18 c37 -37 38 -79 4 -119 -49 -59 -132 -46 -161 23 -40 95 83 170 157 96z"/>
</g>
</svg>
